<svg version="1.1" id="Слой_1" xmlns="http://www.w3.org/2000/svg" xmlns:xlink="http://www.w3.org/1999/xlink" x="0px" y="0px"
	 width="248px" height="214.5px" viewBox="0 0 248 214.5" enable-background="new 0 0 248 214.5" xml:space="preserve">
<g>
	<path fill="#fff" d="M72.316,202.251h-7.405v-4.426c-1.229,1.721-2.681,3.003-4.355,3.844s-3.362,1.263-5.064,1.263
		c-3.461,0-6.426-1.395-8.895-4.185c-2.469-2.79-3.703-6.682-3.703-11.675c0-5.107,1.201-8.989,3.603-11.646
		c2.402-2.657,5.438-3.986,9.107-3.986c3.366,0,6.279,1.4,8.738,4.199v-14.98h7.973V202.251z M51.038,186.533
		c0,3.216,0.444,5.542,1.333,6.979c1.286,2.081,3.083,3.121,5.391,3.121c1.834,0,3.395-0.78,4.681-2.34
		c1.286-1.561,1.929-3.892,1.929-6.994c0-3.461-0.624-5.954-1.873-7.476c-1.248-1.522-2.847-2.284-4.794-2.284
		c-1.892,0-3.476,0.752-4.752,2.256C51.676,181.298,51.038,183.545,51.038,186.533z"/>
	<path fill="#fff" d="M80.175,168.035v-7.376h7.973v7.376H80.175z M80.175,202.251V172.12h7.973v30.131H80.175z"/>
	<path fill="#fff" d="M95.582,204.237l9.107,1.106c0.151,1.059,0.501,1.788,1.05,2.185c0.756,0.567,1.948,0.851,3.575,0.851
		c2.08,0,3.641-0.312,4.681-0.937c0.7-0.416,1.229-1.088,1.589-2.014c0.246-0.663,0.369-1.882,0.369-3.66v-4.397
		c-2.383,3.253-5.391,4.88-9.022,4.88c-4.048,0-7.254-1.711-9.618-5.135c-1.854-2.705-2.78-6.072-2.78-10.1
		c0-5.05,1.215-8.909,3.646-11.576c2.43-2.667,5.452-4,9.065-4c3.726,0,6.799,1.636,9.221,4.908v-4.228h7.462v27.039
		c0,3.556-0.293,6.213-0.879,7.972c-0.587,1.759-1.41,3.14-2.469,4.142c-1.06,1.002-2.473,1.788-4.241,2.355
		c-1.769,0.567-4.005,0.851-6.71,0.851c-5.107,0-8.729-0.875-10.867-2.624c-2.137-1.75-3.206-3.968-3.206-6.653
		C95.553,204.937,95.563,204.615,95.582,204.237z M102.703,186.562c0,3.197,0.619,5.537,1.858,7.022
		c1.239,1.485,2.766,2.227,4.582,2.227c1.948,0,3.593-0.761,4.937-2.284c1.343-1.522,2.015-3.778,2.015-6.767
		c0-3.121-0.644-5.438-1.929-6.951c-1.287-1.513-2.913-2.27-4.88-2.27c-1.911,0-3.485,0.743-4.724,2.228
		C103.322,181.251,102.703,183.517,102.703,186.562z"/>
	<path fill="#fff" d="M131.812,168.035v-7.376h7.973v7.376H131.812z M131.812,202.251V172.12h7.973v30.131H131.812z"/>
	<path fill="#fff" d="M161.773,172.12v6.355h-5.448v12.143c0,2.459,0.052,3.892,0.156,4.298c0.104,0.407,0.34,0.743,0.709,1.007
		c0.369,0.265,0.818,0.397,1.348,0.397c0.737,0,1.806-0.255,3.206-0.766l0.681,6.185c-1.854,0.794-3.954,1.192-6.298,1.192
		c-1.438,0-2.733-0.241-3.887-0.724s-2-1.106-2.539-1.873s-0.913-1.802-1.121-3.107c-0.17-0.926-0.255-2.799-0.255-5.617v-13.136
		h-3.66v-6.355h3.66v-5.986l8-4.653v10.639H161.773z"/>
	<path fill="#fff" d="M173.264,181.313l-7.235-1.305c0.813-2.913,2.213-5.069,4.199-6.469c1.986-1.4,4.937-2.1,8.852-2.1
		c3.556,0,6.204,0.421,7.944,1.262c1.74,0.842,2.965,1.911,3.674,3.206c0.709,1.296,1.064,3.674,1.064,7.136l-0.085,9.306
		c0,2.648,0.127,4.601,0.383,5.859c0.255,1.258,0.733,2.606,1.433,4.043h-7.888c-0.208-0.529-0.463-1.314-0.766-2.355
		c-0.132-0.473-0.227-0.785-0.284-0.936c-1.362,1.324-2.818,2.317-4.369,2.979c-1.551,0.662-3.206,0.993-4.965,0.993
		c-3.103,0-5.547-0.842-7.334-2.525c-1.788-1.683-2.681-3.811-2.681-6.383c0-1.703,0.406-3.22,1.22-4.554
		c0.813-1.333,1.953-2.355,3.419-3.064c1.465-0.709,3.579-1.329,6.341-1.858c3.726-0.699,6.308-1.352,7.746-1.958v-0.794
		c0-1.532-0.378-2.625-1.135-3.277c-0.757-0.652-2.185-0.979-4.284-0.979c-1.418,0-2.525,0.279-3.319,0.837
		S173.755,179.913,173.264,181.313z M183.931,187.781c-1.021,0.341-2.639,0.748-4.852,1.22c-2.213,0.473-3.66,0.936-4.341,1.39
		c-1.041,0.738-1.561,1.674-1.561,2.809c0,1.117,0.416,2.081,1.249,2.894c0.832,0.813,1.891,1.22,3.178,1.22
		c1.437,0,2.809-0.473,4.114-1.419c0.964-0.718,1.598-1.598,1.901-2.638c0.208-0.681,0.312-1.977,0.312-3.887V187.781z"/>
	<path fill="#fff" d="M199.621,202.251v-41.593h7.973v41.593H199.621z"/>
</g>
<g>
	<path fill="#fff" d="M11.283,23.736l11.604-6.567v26.929l-11.604-6.785l-11.385-6.57L11.283,23.736z M11.283,53.732l-11.385,6.789V33.592
		l11.385,6.567l11.604,7.007L11.283,53.732z M11.283,56.58l11.604-6.57v26.933l-11.604-6.789l-11.385-6.567L11.283,56.58z
		 M11.283,86.576l-11.385,6.789V66.432l11.385,6.57l11.604,7.007L11.283,86.576z M11.283,89.424l11.604-6.57v26.933l-11.604-6.789
		l-11.385-6.57L11.283,89.424z M11.283,119.42l-11.385,6.785V99.276l11.385,6.567l11.604,7.007L11.283,119.42z M11.283,122.265
		l11.604-6.567v26.929l-11.604-6.785l-11.385-6.57L11.283,122.265z M37.557,7.315L49.16,0.749v26.928l-11.604-6.785l-11.385-6.57
		L37.557,7.315z M37.557,37.314l-11.385,6.785V17.17l11.385,6.567l11.604,7.007L37.557,37.314z M37.557,138.687l11.604-6.567v26.929
		l-11.604-6.789l-11.385-6.567L37.557,138.687z M63.831,20.892l-11.385,6.785V0.749l11.385,6.565l11.604,7.007L63.831,20.892z
		 M63.831,23.736l11.604-6.567v26.929l-11.604-6.785l-11.385-6.57L63.831,23.736z M63.831,122.265l11.604-6.567v26.929
		l-11.604-6.785l-11.385-6.57L63.831,122.265z M63.831,152.261l-11.385,6.789V132.12l11.385,6.567l11.604,7.007L63.831,152.261z
		 M90.104,37.314l-11.385,6.785V17.17l11.385,6.567l11.604,7.007L90.104,37.314z M90.104,105.843l11.604-6.567v26.929l-11.604-6.785
		l-11.385-6.57L90.104,105.843z M90.104,135.842l-11.385,6.785v-26.929l11.385,6.567l11.604,7.007L90.104,135.842z"/>
</g>
<g>
	<path fill="#fff" d="M124.041,13.563l11.607-6.567v26.929l-11.607-6.785l-11.385-6.57L124.041,13.563z M124.041,43.559l-11.385,6.789V23.418
		l11.385,6.567l11.607,7.007L124.041,43.559z M124.041,46.407l11.607-6.57v26.933l-11.607-6.789l-11.385-6.567L124.041,46.407z
		 M124.041,76.403l-11.385,6.789V56.258l11.385,6.57l11.607,7.007L124.041,76.403z M124.041,79.25l11.607-6.57v26.933l-11.607-6.789
		l-11.385-6.57L124.041,79.25z M124.041,109.246l-11.385,6.785V89.102l11.385,6.567l11.607,7.007L124.041,109.246z M124.041,112.091
		l11.607-6.567v26.929l-11.607-6.785l-11.385-6.57L124.041,112.091z M124.041,142.087l-11.385,6.789v-26.929l11.385,6.567
		l11.607,7.007L124.041,142.087z M150.315,62.829l11.607-6.57v26.933l-11.607-6.789l-11.385-6.567L150.315,62.829z M150.315,92.824
		l-11.385,6.789V72.68l11.385,6.57l11.607,7.004L150.315,92.824z M176.592,46.407l11.604-6.57v26.933l-11.604-6.789l-11.388-6.567
		L176.592,46.407z M176.592,76.403l-11.388,6.789V56.258l11.388,6.57l11.604,7.007L176.592,76.403z M202.865,128.946l11.604-6.565
		v26.928l-11.604-6.785l-11.385-6.57L202.865,128.946z M202.865,27.14l-11.385,6.785V6.996l11.385,6.567l11.604,7.007L202.865,27.14
		z M202.865,29.985l11.604-6.567v26.929l-11.604-6.789l-11.385-6.567L202.865,29.985z M202.865,59.981l-11.385,6.789V39.837
		l11.385,6.57l11.604,7.007L202.865,59.981z M202.865,62.829l11.604-6.57v26.933l-11.604-6.789l-11.385-6.567L202.865,62.829z
		 M202.865,92.824l-11.385,6.789V72.68l11.385,6.57l11.604,7.004L202.865,92.824z M202.865,95.669l11.604-6.567v26.929
		l-11.604-6.785l-11.385-6.57L202.865,95.669z M202.865,125.668l-11.385,6.785v-26.929l11.385,6.567l11.604,7.007L202.865,125.668z"
		/>
</g>
<g>
	<path fill="#fff" d="M236.802,128.946l11.604-6.565v26.928l-11.604-6.785l-11.385-6.57L236.802,128.946z M236.802,44.018l-11.385,6.785V23.874
		l11.385,6.567l11.604,7.007L236.802,44.018z M236.802,62.829l11.604-6.57v26.933l-11.604-6.789l-11.385-6.567L236.802,62.829z
		 M236.802,92.824l-11.385,6.789V72.68l11.385,6.57l11.604,7.004L236.802,92.824z M236.802,95.669l11.604-6.567v26.929
		l-11.604-6.785l-11.385-6.57L236.802,95.669z M236.802,125.668l-11.385,6.785v-26.929l11.385,6.567l11.604,7.007L236.802,125.668z"
		/>
</g>
<g>
	<rect fill="#fff" x="214.165" y="183.392" width="34.241" height="8"/>
</g>
<g>
	<rect fill="#fff" x="-0.102" y="183.392" width="34.241" height="8"/>
</g>
</svg>
