<?xml version="1.0"?>
<svg width="512" height="512" xmlns="http://www.w3.org/2000/svg" xmlns:svg="http://www.w3.org/2000/svg" clip-rule="evenodd" fill-rule="evenodd" version="1.1">
 <g class="layer">
  <title>Layer 1</title>
  <g id="svg_1">
   <path d="m87.5,64.5c40.11,14.56 80.11,29.39 120,44.5c-34,-1.58 -68,-3.58 -102,-6c-6.42,-12.67 -12.42,-25.5 -18,-38.5z" fill="#fff" id="svg_2" opacity="0.94"/>
  </g>
  <g id="svg_3">
   <path d="m284.5,64.5c2.24,1.07 4.07,2.73 5.5,5c9.97,14.8 20.14,29.47 30.5,44c-28.68,0.42 -57.35,-0.41 -86,-2.5c16.86,-15.37 33.53,-30.87 50,-46.5z" fill="#fff" id="svg_4" opacity="0.96"/>
  </g>
  <g id="svg_5">
   <path d="m511.5,64.5c0,0.33 0,0.67 0,1c-58.4,16.56 -116.9,32.89 -175.5,49c-12.75,-15.96 -24.91,-32.46 -36.5,-49.5c70.67,-0.5 141.33,-0.67 212,-0.5z" fill="#fff" id="svg_6" opacity="0.96"/>
  </g>
  <g id="svg_7">
   <path d="m-0.5,108.5c71.33,3.85 142.66,7.68 214,11.5c1.12,0.25 2.12,0.75 3,1.5c-24.75,46.49 -49.75,92.83 -75,139c-46.99,-50.32 -94.32,-100.32 -142,-150c0,-0.67 0,-1.33 0,-2z" fill="#fff" id="svg_8" opacity="0.98"/>
  </g>
  <g id="svg_9">
   <path d="m227.5,120.5c31.62,2.05 63.29,3.72 95,5c-7.29,47.41 -15.12,94.74 -23.5,142c-7.13,8.14 -14.63,15.97 -22.5,23.5c-18.51,18.02 -37.18,35.85 -56,53.5c-23.66,-25.29 -47.32,-50.62 -71,-76c26.01,-49.36 52.01,-98.69 78,-148z" fill="#fff" id="svg_10" opacity="0.99"/>
  </g>
  <g id="svg_11">
   <path d="m154.5,290.5c19.65,20.32 38.98,40.99 58,62c-31.65,31.49 -63.49,62.82 -95.5,94c11.85,-52.09 24.35,-104.09 37.5,-156z" fill="#fff" id="svg_12" opacity="0.97"/>
  </g>
 </g>
</svg>